# xmcd
#
# Track frame offsets:
# 150
# 17907
# 32475
# 47106
# 63625
# 81581
# 97950
# 112013
# 132162
# 154697
# 169936
#
# Disc length: 2498 seconds
#
# Revision: 0
# Processed by: cddbd v1.5.1PL0 Copyright (c) Steve Scherf et al.
# Submitted via: Audion 3.0.2 (http://www.panic.com/audion/)
#
DISCID=9109c00b
DTITLE=Luca Brasi - Fire Forever
DYEAR=1900
DGENRE=
TTITLE0=Nebe se blyska
TTITLE1=Vydej se dal
TTITLE2=Let me falling
TTITLE3=Fire forever
TTITLE4=J.T.J
TTITLE5=Rub a lic
TTITLE6=Last Day
TTITLE7=Vzpominky
TTITLE8=How is it
TTITLE9=Civil war
TTITLE10=Tvar
EXTD=
EXTT0=
EXTT1=
EXTT2=
EXTT3=
EXTT4=
EXTT5=
EXTT6=
EXTT7=
EXTT8=
EXTT9=
EXTT10=
PLAYORDER=
